<?xml version="1.0" encoding="UTF-8" standalone="no"?>
<svg
   xmlns:dc="http://purl.org/dc/elements/1.1/"
   xmlns:cc="http://creativecommons.org/ns#"
   xmlns:rdf="http://www.w3.org/1999/02/22-rdf-syntax-ns#"
   xmlns:svg="http://www.w3.org/2000/svg"
   xmlns="http://www.w3.org/2000/svg"
   xmlns:sodipodi="http://sodipodi.sourceforge.net/DTD/sodipodi-0.dtd"
   xmlns:inkscape="http://www.inkscape.org/namespaces/inkscape"
   width="600"
   height="400"
   viewBox="0 0 599.99999 399.99999"
   version="1.1"
   id="svg8"
   inkscape:version="1.0 (4035a4fb49, 2020-05-01)"
   sodipodi:docname="path04.svg">
  <defs
     id="defs2" />
  <sodipodi:namedview
     id="base"
     pagecolor="#ffffff"
     bordercolor="#666666"
     borderopacity="1.0"
     inkscape:pageopacity="0.0"
     inkscape:pageshadow="2"
     inkscape:zoom="1.4"
     inkscape:cx="229.23868"
     inkscape:cy="239.51622"
     inkscape:document-units="px"
     inkscape:current-layer="layer1"
     inkscape:document-rotation="0"
     showgrid="false"
     units="px"
     inkscape:lockguides="false"
     showguides="false"
     inkscape:window-width="1920"
     inkscape:window-height="1017"
     inkscape:window-x="-8"
     inkscape:window-y="-8"
     inkscape:window-maximized="1" />
  <metadata
     id="metadata5">
    <rdf:RDF>
      <cc:Work
         rdf:about="">
        <dc:format>image/svg+xml</dc:format>
        <dc:type
           rdf:resource="http://purl.org/dc/dcmitype/StillImage" />
        <dc:title></dc:title>
      </cc:Work>
    </rdf:RDF>
  </metadata>
  <g
     inkscape:label="Layer 1"
     inkscape:groupmode="layer"
     id="layer1">
    <path
       sodipodi:nodetypes="caac"
       id="path1426"
       d="m -20,-20 c 0,0 127.19173,136.34242 207.14286,181.42857 72.51753,40.89419 166.23765,33.48043 238.03571,75.625 C 502.0056,282.15007 620,420 620,420"
       style="fill:none;stroke:#000000;stroke-width:1px;stroke-linecap:butt;stroke-linejoin:miter;stroke-opacity:1;font-variation-settings:normal;opacity:1;vector-effect:none;fill-opacity:1;stroke-miterlimit:4;stroke-dasharray:none;stroke-dashoffset:0;stop-color:#000000;stop-opacity:1" />
    <path
       style="fill:none;stroke:#000000;stroke-width:1px;stroke-linecap:butt;stroke-linejoin:miter;stroke-opacity:1"
       d="m -24,-15.999996 c 0,0 127.19173,136.342416 207.14286,181.428566 72.51753,40.89419 166.23765,33.48043 238.03571,75.625 C 498.0056,286.15007 616,424 616,424"
       id="path1426-9"
       sodipodi:nodetypes="caac" />
    <path
       style="fill:none;stroke:#000000;stroke-width:1px;stroke-linecap:butt;stroke-linejoin:miter;stroke-opacity:1"
       d="m -16,-23.999996 c 0,0 127.19173,136.342416 207.14286,181.428566 72.51753,40.89419 166.23765,33.48043 238.03571,75.625 C 506.0056,278.15007 624,416 624,416"
       id="path1426-8"
       sodipodi:nodetypes="caac" />
    <path
       sodipodi:nodetypes="caac"
       id="path1426-9-9"
       d="m -28,-11.999996 c 0,0 127.19173,136.342416 207.14286,181.428566 72.51753,40.89419 166.23765,33.48043 238.03571,75.625 C 494.0056,290.15007 612,428 612,428"
       style="fill:none;stroke:#000000;stroke-width:1px;stroke-linecap:butt;stroke-linejoin:miter;stroke-opacity:1" />
    <path
       sodipodi:nodetypes="caac"
       id="path1426-8-9"
       d="m -12,-27.999996 c 0,0 127.19173,136.342416 207.14286,181.428566 72.51753,40.89419 166.23765,33.48043 238.03571,75.625 C 510.0056,274.15007 628,412 628,412"
       style="fill:none;stroke:#000000;stroke-width:1px;stroke-linecap:butt;stroke-linejoin:miter;stroke-opacity:1" />
  </g>
</svg>
