<?xml version="1.0" encoding="UTF-8" standalone="no"?>
<svg
   xmlns:dc="http://purl.org/dc/elements/1.1/"
   xmlns:cc="http://creativecommons.org/ns#"
   xmlns:rdf="http://www.w3.org/1999/02/22-rdf-syntax-ns#"
   xmlns:svg="http://www.w3.org/2000/svg"
   xmlns="http://www.w3.org/2000/svg"
   xmlns:sodipodi="http://sodipodi.sourceforge.net/DTD/sodipodi-0.dtd"
   xmlns:inkscape="http://www.inkscape.org/namespaces/inkscape"
   sodipodi:docname="path02.svg"
   inkscape:version="1.0 (4035a4fb49, 2020-05-01)"
   id="svg885"
   version="1.1"
   viewBox="0 0 280 80"
   height="80"
   width="280">
  <defs
     id="defs879" />
  <sodipodi:namedview
     inkscape:window-maximized="1"
     inkscape:window-y="-8"
     inkscape:window-x="-8"
     inkscape:window-height="1017"
     inkscape:window-width="1920"
     units="px"
     showgrid="false"
     inkscape:document-rotation="0"
     inkscape:current-layer="layer1"
     inkscape:document-units="px"
     inkscape:cy="119.33586"
     inkscape:cx="327.20377"
     inkscape:zoom="1.4"
     inkscape:pageshadow="2"
     inkscape:pageopacity="0.0"
     borderopacity="1.0"
     bordercolor="#666666"
     pagecolor="#ffffff"
     id="base" />
  <metadata
     id="metadata882">
    <rdf:RDF>
      <cc:Work
         rdf:about="">
        <dc:format>image/svg+xml</dc:format>
        <dc:type
           rdf:resource="http://purl.org/dc/dcmitype/StillImage" />
        <dc:title></dc:title>
      </cc:Work>
    </rdf:RDF>
  </metadata>
  <g
     id="layer1"
     inkscape:groupmode="layer"
     inkscape:label="Layer 1">
    <path
       d="m 34.882744,8.8025526 q 14.006478,0 18.217575,11.4383164 v 1.928814 q 0,1.255972 -1.327408,1.255972 -2.837917,0 -9.703836,-1.928814 0,-0.627986 0.595048,-0.627986 Q 39.276933,13.24331 38.086841,13.24331 23.210678,24.322778 23.210678,47.603117 v 0.627987 q 2.105549,10.81033 6.499738,10.81033 1.739367,0 14.281119,-6.369572 v -3.767917 q -2.837917,0 -5.218102,1.255973 -9.841154,-0.852268 -10.390428,-3.229643 v -0.627986 q 12.541752,-1.255974 18.812622,-3.139934 9.795383,0.627991 9.795383,2.556805 v 0.583129 q -1.968231,0 -1.968231,1.300825 v 2.556801 l 1.281639,1.928815 v 0.583132 l -1.281639,1.928814 q -0.411956,14.623103 -1.28164,14.623103 l -1.281637,0.672842 q -1.876685,0 -9.108787,-1.97367 V 62.27107 l 0.64082,-1.25597 h -0.64082 q -6.408194,1.883957 -8.467971,1.883957 -22.749085,0 -22.749085,-18.480729 0,-19.691845 14.921935,-33.731818 5.401191,-1.8839574 7.82715,-1.8839574 z"
       style="font-style:normal;font-variant:normal;font-weight:normal;font-stretch:normal;font-size:25.4px;line-height:1.25;font-family:'Hanyi Senty Chalk Original';-inkscape-font-specification:'Hanyi Senty Chalk Original';fill:none;fill-opacity:1;stroke:#d00000;stroke-width:0.96666;stroke-opacity:1"
       id="path1452" />
    <path
       d="m 82.989964,8.1745666 q 20.826626,0 20.826626,10.1374874 -1.05278,6.414429 -16.890162,15.295945 v 0.627986 q 4.348413,7.849824 14.967702,30.547032 0.64082,0 0.64082,0.672841 v 1.883957 h -0.64082 q -10.161558,0 -12.358655,-5.741586 l -10.390427,-23.549473 -5.85892,0.672845 q -0.64082,12.694284 -0.64082,19.063856 v 7.670401 q 0,1.25597 -1.281636,1.25597 -2.837917,0 -9.795383,-1.928811 v -3.184788 q 0,-12.514864 2.609052,-51.539704 l 1.281636,-0.6728424 h 1.968232 q 0.686592,0 0.686592,0.6728424 4.760372,-1.8839583 14.876163,-1.8839584 z m -7.781376,5.6518734 -1.28164,17.224758 q 7.186331,0 18.858399,-12.739144 v -1.883957 q 0,-3.409067 -2.609052,-4.485614 h -4.577279 q -5.538511,0 -10.390428,1.883957 z"
       style="font-style:normal;font-variant:normal;font-weight:normal;font-stretch:normal;font-size:25.4px;line-height:1.25;font-family:'Hanyi Senty Chalk Original';-inkscape-font-specification:'Hanyi Senty Chalk Original';fill:none;fill-opacity:1;stroke:#d00000;stroke-width:0.96666;stroke-opacity:1"
       id="path1454" />
    <path
       d="m 127.29805,8.1745666 h 0.64081 q 16.02048,0 19.49922,7.6255444 10.39043,4.889319 10.39043,19.691846 0,18.39102 -14.96771,24.222319 -2.28864,1.883953 -6.45397,1.883953 h -2.014 q -25.95318,0 -25.95318,-18.43587 0,-20.768396 13.6403,-33.103834 3.24986,-1.8839584 5.2181,-1.8839584 z m -7.78139,35.6157794 v 0.627987 q 0,10.586048 9.1088,13.995115 5.81314,0 14.87616,-9.509503 3.24986,-5.337881 3.24986,-12.784002 v -2.511944 q 0,-15.879074 -10.34465,-15.879074 0,-5.786442 -2.60905,-5.786442 -14.28112,10.810329 -14.28112,31.847863 z"
       style="font-style:normal;font-variant:normal;font-weight:normal;font-stretch:normal;font-size:25.4px;line-height:1.25;font-family:'Hanyi Senty Chalk Original';-inkscape-font-specification:'Hanyi Senty Chalk Original';fill:none;fill-opacity:1;stroke:#d00000;stroke-width:0.96666;stroke-opacity:1"
       id="path1456" />
    <path
       d="m 164.41979,6.9185947 h 5.85892 l 4.5315,0.5831296 Q 174.1694,21.182848 174.1694,26.61044 l -0.64082,1.300829 0.64082,1.255972 q 0,0.627986 -0.64082,0.627986 0,20.813248 9.74961,28.618221 9.33765,-4.037053 15.56275,-19.691847 l 0.64082,-4.485616 V 9.3856826 q 0.1831,-1.2111159 1.28164,-1.2111159 h 5.2181 q 5.17233,0 5.17233,3.7679163 l 1.32741,50.328587 h -5.85892 l -6.49974,-0.672841 v -5.068745 h -0.64082 q -5.90469,5.068745 -12.99947,5.068745 -15.51698,0 -20.73509,-10.810331 -3.29564,-10.496332 -3.29564,-19.108713 0,-6.952702 1.96823,-24.7605903 z"
       style="font-style:normal;font-variant:normal;font-weight:normal;font-stretch:normal;font-size:25.4px;line-height:1.25;font-family:'Hanyi Senty Chalk Original';-inkscape-font-specification:'Hanyi Senty Chalk Original';fill:none;fill-opacity:1;stroke:#d00000;stroke-width:0.96666;stroke-opacity:1"
       id="path1458" />
    <path
       d="m 238.61751,8.1745666 q 22.61177,0 29.24883,14.5782454 v 5.786443 q 0,9.554359 -20.73508,17.763034 -6.49975,1.300828 -11.71785,1.300828 l -4.57728,-0.672842 q -1.92245,26.15113 -3.24987,26.15113 h -0.59504 q -9.79539,-0.852268 -9.79539,-3.184788 1.28165,-6.548996 4.53151,-48.399776 1.60206,-10.944899 3.29565,-12.6942885 h 1.96823 q 1.41895,0 2.56328,0.58313 3.5245,-1.2111159 9.06301,-1.2111159 z m -2.56328,5.0687434 v 0.58313 h 1.32742 q -4.57728,2.287664 -4.57728,10.227201 l -1.96824,19.108714 1.28164,0.627991 q 16.79862,0 24.71732,-15.879077 v -4.485614 q 0,-7.984393 -10.39043,-11.483172 h -2.60905 q -3.29564,0 -7.78138,1.300827 z"
       style="font-style:normal;font-variant:normal;font-weight:normal;font-stretch:normal;font-size:25.4px;line-height:1.25;font-family:'Hanyi Senty Chalk Original';-inkscape-font-specification:'Hanyi Senty Chalk Original';fill:none;fill-opacity:1;stroke:#d00000;stroke-width:0.96666;stroke-opacity:1"
       id="path1460" />
  </g>
</svg>
